<svg xmlns="http://www.w3.org/2000/svg" width="1024" height="1024" viewBox="0 0 1024 1024">
<g>
<path d="M 708.20 810.15 C703.96,811.55 637.22,812.30 628.00,811.06 C619.28,809.88 611.09,805.38 607.28,799.68 C605.50,797.02 603.59,793.20 603.03,791.18 C602.44,789.03 602.01,774.26 602.01,755.70 C602.00,724.43 602.04,723.84 604.30,719.58 C607.94,712.74 611.10,709.60 618.33,705.63 L 625.07 701.93 L 661.48 701.97 C681.51,702.00 700.05,702.31 702.70,702.67 C709.34,703.56 717.98,708.23 721.00,712.56 C722.38,714.53 724.62,717.54 726.00,719.26 L 728.50 722.38 L 728.29 788.50 L 724.91 794.92 C721.19,801.96 714.47,808.09 708.20,810.15 ZM 628.93 809.99 C637.25,811.40 696.87,811.12 703.15,809.64 C714.80,806.90 722.51,799.93 725.58,789.37 C726.84,785.05 727.06,778.76 726.81,754.30 L 726.50 724.50 L 723.79 719.36 C722.30,716.54 719.16,712.58 716.82,710.58 C709.30,704.14 707.04,703.87 663.34,704.21 L 624.50 704.50 L 619.50 707.16 C613.13,710.55 608.71,715.17 605.80,721.50 C603.56,726.37 603.50,727.28 603.50,757.00 C603.50,786.72 603.56,787.63 605.80,792.50 C610.00,801.62 618.80,808.28 628.93,809.99 ZM 700.23 785.08 L 696.97 788.00 L 665.73 787.96 C632.62,787.92 630.48,787.64 628.03,783.05 C627.40,781.89 627.00,771.41 627.00,756.49 L 627.00 731.85 L 629.92 728.92 L 632.85 726.00 L 698.09 726.00 L 700.48 728.39 C703.86,731.77 704.18,734.81 703.82,759.87 L 703.50 782.17 ZM 631.81 784.20 C633.08,785.74 636.30,785.91 664.12,785.97 C698.23,786.04 698.78,785.95 700.93,779.78 C701.56,777.97 702.00,768.13 702.00,755.80 C702.00,739.02 701.70,734.32 700.47,731.95 C699.64,730.33 698.40,728.99 697.72,728.98 C669.28,728.41 634.96,728.47 633.30,729.09 C628.68,730.82 628.00,734.33 628.00,756.40 C628.00,776.87 628.45,780.18 631.81,784.20 ZM 452.50 643.24 C453.99,643.48 454.12,643.69 453.00,644.08 C450.97,644.78 440.93,643.56 438.48,642.30 C437.39,641.75 433.58,640.70 430.00,639.98 C426.42,639.25 422.05,638.06 420.28,637.33 C418.51,636.60 416.04,636.00 414.78,636.00 C413.53,635.99 410.42,634.94 407.89,633.65 C405.35,632.36 401.20,631.02 398.66,630.68 C396.13,630.33 390.23,628.24 385.55,626.02 C380.87,623.81 376.54,622.00 375.93,622.00 C375.32,622.00 373.67,621.10 372.27,620.00 C370.87,618.90 368.32,618.00 366.60,618.00 C364.67,618.00 361.44,616.63 358.16,614.42 C355.23,612.45 351.64,610.63 350.17,610.39 C348.70,610.14 346.88,609.05 346.13,607.97 C345.22,606.66 343.60,606.00 341.33,606.00 C338.92,606.00 337.12,605.19 335.22,603.25 C332.50,600.46 324.38,595.35 318.00,592.40 C316.08,591.51 314.14,590.16 313.70,589.39 C313.26,588.63 312.50,588.00 312.00,588.00 C310.78,588.00 302.60,582.43 301.02,580.53 C300.33,579.69 299.28,579.00 298.70,579.00 C297.06,579.00 284.42,570.25 274.71,562.39 C269.88,558.48 264.27,554.43 262.24,553.39 C260.21,552.35 256.73,549.67 254.52,547.44 C252.31,545.21 244.65,538.86 237.49,533.33 C230.33,527.81 223.87,522.54 223.12,521.64 C222.37,520.74 221.29,520.00 220.72,520.00 C220.15,520.00 215.89,516.17 211.24,511.50 C206.60,506.83 202.28,502.99 201.65,502.97 C200.41,502.93 196.00,499.54 196.00,498.63 C196.00,497.45 187.26,489.23 182.68,486.10 C180.03,484.29 177.62,482.18 177.33,481.41 C177.03,480.64 174.59,478.58 171.91,476.85 C169.23,475.11 166.79,472.90 166.48,471.95 C166.18,470.99 163.58,468.13 160.72,465.58 C154.13,459.75 153.99,459.61 147.56,453.00 C144.62,449.98 141.27,446.71 140.11,445.75 C135.55,441.97 136.93,439.56 153.25,422.88 C161.64,414.31 170.75,405.38 173.50,403.03 C176.25,400.68 184.53,393.08 191.90,386.13 C199.27,379.18 206.47,372.76 207.90,371.86 C209.33,370.96 213.19,367.47 216.47,364.11 C219.75,360.75 222.98,358.00 223.63,358.00 C224.29,358.00 226.61,355.98 228.79,353.50 C230.97,351.02 233.47,349.00 234.35,349.00 C235.23,349.00 236.69,347.88 237.59,346.50 C238.49,345.12 239.83,344.00 240.56,344.00 C241.29,344.00 242.47,343.21 243.19,342.25 C243.91,341.28 246.30,339.31 248.50,337.86 C250.70,336.41 256.77,331.66 262.00,327.30 C267.23,322.94 273.71,317.87 276.40,316.03 C279.10,314.19 282.03,312.06 282.90,311.29 C283.78,310.51 287.42,307.97 291.00,305.63 C298.82,300.51 308.60,293.98 315.77,289.09 C321.98,284.86 326.48,282.19 334.00,278.30 C337.02,276.74 342.65,273.67 346.50,271.49 C353.05,267.77 360.32,264.38 367.63,261.62 C369.36,260.97 371.38,259.93 372.14,259.30 C372.89,258.67 374.86,257.83 376.51,257.43 C378.15,257.03 381.61,255.61 384.20,254.27 C387.36,252.64 389.41,252.13 390.46,252.72 C391.61,253.36 389.21,254.72 381.26,257.90 C327.54,279.43 270.90,318.12 199.50,382.07 C183.29,396.59 155.67,423.03 146.16,433.13 L 138.98 440.75 L 147.88 450.15 C168.10,471.53 218.11,515.73 256.50,546.18 C311.38,589.70 360.86,617.25 413.00,633.31 C425.20,637.07 444.87,642.01 452.50,643.24 ZM 637.00 626.77 C629.33,630.49 628.74,630.69 626.59,630.21 C625.45,629.96 630.66,627.42 639.59,623.88 C656.98,616.99 681.08,605.41 694.83,597.36 C734.84,573.92 779.94,539.40 837.00,488.54 C855.23,472.29 885.00,442.61 885.00,440.68 C885.00,437.53 852.62,405.78 818.50,375.47 C793.18,352.98 753.49,321.41 729.00,304.29 C674.74,266.36 619.64,243.64 560.50,234.84 C552.10,233.59 551.83,233.48 556.47,233.19 C561.22,232.89 571.54,234.45 584.50,237.43 C587.80,238.19 594.10,239.58 598.50,240.52 C602.90,241.47 607.62,242.69 609.00,243.25 C610.38,243.80 612.69,244.41 614.15,244.60 C615.61,244.79 619.38,246.08 622.53,247.47 C625.67,248.86 628.84,250.00 629.57,250.00 C630.30,250.00 634.18,251.49 638.19,253.32 C642.21,255.14 647.97,257.49 651.00,258.54 C654.03,259.59 657.57,261.24 658.88,262.22 C660.20,263.20 661.89,264.00 662.64,264.00 C664.06,264.00 668.79,266.26 680.00,272.29 C683.58,274.21 688.72,276.96 691.42,278.40 C694.13,279.83 697.09,281.68 698.00,282.50 C698.91,283.33 700.30,284.01 701.08,284.02 C701.86,284.03 703.56,285.15 704.85,286.52 C706.15,287.88 707.57,289.00 708.02,289.00 C708.46,289.00 711.22,290.58 714.14,292.50 C717.06,294.42 719.94,296.00 720.53,296.00 C721.12,296.00 723.37,297.62 725.53,299.59 C727.68,301.56 730.69,303.82 732.20,304.60 C736.92,307.05 742.28,310.96 743.73,313.02 C744.49,314.11 745.74,315.00 746.51,315.00 C747.27,315.00 748.26,315.57 748.70,316.26 C749.86,318.07 756.66,323.00 758.02,323.00 C758.65,323.00 760.66,324.54 762.48,326.41 C764.30,328.29 767.98,331.35 770.65,333.22 C773.32,335.09 777.75,338.72 780.50,341.30 C783.25,343.87 785.95,346.00 786.50,346.02 C787.05,346.04 789.75,348.30 792.50,351.03 C795.24,353.76 798.27,356.00 799.22,356.00 C800.17,356.00 801.66,357.07 802.51,358.38 C803.37,359.69 806.60,362.73 809.69,365.13 C812.78,367.53 819.54,373.66 824.71,378.74 C829.88,383.83 837.80,391.15 842.31,395.01 C846.81,398.87 852.97,404.50 856.00,407.53 C859.03,410.56 862.06,413.03 862.74,413.02 C863.42,413.01 865.07,414.73 866.41,416.85 C868.71,420.50 876.55,428.00 878.06,428.00 C878.44,428.00 879.30,429.31 879.96,430.90 C880.62,432.50 882.25,434.83 883.58,436.08 C886.44,438.77 886.63,441.11 884.26,444.72 C881.03,449.65 846.20,482.97 829.09,497.50 C824.55,501.35 818.87,506.64 816.47,509.25 C814.06,511.86 811.59,514.00 810.99,514.00 C809.67,514.00 782.00,536.97 782.00,538.07 C782.00,538.48 779.19,540.72 775.75,543.03 C772.31,545.35 767.92,548.71 766.00,550.51 C764.08,552.31 761.15,554.46 759.50,555.29 C757.85,556.13 754.32,558.88 751.65,561.40 C748.97,563.93 746.27,566.00 745.65,566.01 C744.62,566.02 734.75,572.90 731.03,576.20 C729.07,577.94 721.09,583.00 720.31,583.00 C719.96,583.00 717.17,584.91 714.09,587.25 C711.02,589.58 706.42,592.50 703.87,593.73 C701.33,594.95 696.16,597.99 692.37,600.48 C688.59,602.96 685.05,605.00 684.50,605.00 C683.95,605.01 682.15,605.75 680.50,606.65 C671.00,611.85 656.34,619.00 655.20,619.00 C653.86,619.00 646.95,621.95 637.00,626.77 ZM 850.23 809.81 C846.93,811.31 841.69,811.51 804.50,811.57 L 762.50 811.64 L 803.52 811.07 L 844.55 810.50 L 851.33 807.16 C862.48,801.67 867.01,793.12 866.99,777.57 C866.99,767.73 865.91,763.59 861.72,757.32 C859.33,753.74 856.96,751.73 852.50,749.50 L 846.50 746.50 L 817.00 745.99 C800.78,745.71 786.77,745.12 785.89,744.68 C781.86,742.70 780.64,732.90 783.91,728.86 L 785.82 726.50 L 863.00 725.93 L 863.00 703.92 L 820.75 704.21 C778.56,704.50 778.49,704.50 774.00,706.86 C762.86,712.70 759.74,718.35 759.19,733.67 C758.57,751.08 762.47,759.06 774.55,765.05 C779.39,767.44 780.17,767.51 809.22,768.00 C837.92,768.48 839.02,768.57 841.08,770.64 C842.39,771.95 843.42,774.55 843.73,777.34 C844.20,781.43 843.93,782.22 841.20,784.95 L 838.15 788.00 L 760.88 788.00 L 761.19 799.50 C761.36,805.83 761.19,811.00 760.81,811.00 C759.44,811.00 758.76,808.70 758.21,802.16 C757.36,792.09 757.69,788.70 759.64,787.28 C760.98,786.29 770.01,786.00 798.76,786.00 C820.77,786.00 836.87,785.60 837.93,785.04 C838.92,784.51 840.29,782.71 840.98,781.04 C842.46,777.48 840.97,772.59 837.93,770.96 C836.92,770.42 825.06,769.99 810.82,769.98 C785.23,769.95 779.75,769.39 772.50,766.07 C770.30,765.07 767.70,763.97 766.72,763.64 C765.75,763.31 763.16,759.34 760.97,754.82 C757.12,746.85 757.00,746.29 757.00,736.16 C757.00,718.92 760.60,712.02 773.20,705.12 L 778.89 702.00 L 864.86 702.00 L 865.18 711.25 C865.59,723.06 865.19,725.83 862.92,727.04 C861.81,727.64 846.70,728.03 824.74,728.03 C793.61,728.03 788.09,728.25 786.20,729.57 C782.98,731.83 783.34,736.18 787.10,740.47 L 790.21 744.00 L 816.20 744.00 C846.75,744.00 849.73,744.55 857.81,751.61 C866.48,759.20 867.50,762.02 867.50,778.52 L 867.50 792.54 L 863.70 798.27 C861.60,801.42 859.55,804.00 859.14,804.00 C858.72,804.00 857.38,804.93 856.17,806.06 C854.95,807.19 852.28,808.88 850.23,809.81 ZM 680.00 533.23 C665.07,542.96 658.41,546.77 659.50,544.95 C659.97,544.15 662.61,539.90 665.36,535.50 C672.45,524.15 680.17,507.40 684.50,494.00 C688.13,482.74 691.97,464.70 692.03,458.58 C692.05,456.14 692.26,455.84 693.02,457.13 C694.38,459.46 689.49,485.68 686.40,492.65 C685.63,494.38 685.00,496.79 685.00,498.00 C685.00,499.20 683.45,503.46 681.56,507.45 C679.66,511.44 677.81,515.90 677.45,517.35 C677.08,518.81 676.46,520.00 676.06,520.00 C675.38,520.00 667.00,535.17 667.00,536.41 C667.00,538.47 677.08,533.82 682.00,529.49 C683.38,528.28 685.17,527.00 686.00,526.64 C687.59,525.94 690.03,524.35 696.97,519.50 C699.34,517.85 702.27,515.83 703.49,515.00 C704.71,514.17 707.69,511.84 710.11,509.80 C712.52,507.77 717.20,503.97 720.50,501.37 C723.80,498.76 726.66,496.23 726.86,495.73 C727.06,495.24 728.55,494.03 730.18,493.04 C731.81,492.05 735.02,489.64 737.32,487.69 C742.35,483.42 749.85,477.21 753.12,474.60 C757.97,470.72 770.65,459.42 775.50,454.66 C778.25,451.96 781.56,449.05 782.85,448.19 C784.15,447.34 786.32,444.86 787.69,442.70 L 790.17 438.76 L 781.94 431.13 C777.41,426.93 772.76,422.86 771.60,422.07 C770.45,421.28 767.36,418.58 764.75,416.07 C762.13,413.56 758.94,411.05 757.66,410.50 C756.38,409.95 752.74,406.69 749.56,403.25 C746.38,399.81 743.24,397.00 742.57,397.00 C741.90,397.00 740.26,395.82 738.92,394.37 C736.61,391.86 722.91,380.84 709.68,370.83 C706.28,368.26 702.20,365.11 700.61,363.83 C699.03,362.55 695.58,360.15 692.95,358.50 C690.33,356.85 684.92,353.15 680.94,350.28 C670.92,343.05 669.35,344.57 675.50,355.57 C677.42,359.01 679.00,362.38 679.00,363.05 C679.00,363.73 680.35,366.47 682.00,369.15 C683.98,372.37 684.98,375.30 684.95,377.77 C684.90,381.44 684.86,381.40 682.55,375.40 C678.25,364.21 673.91,354.93 669.01,346.43 C666.35,341.79 664.49,338.00 664.89,338.00 C665.89,338.00 685.75,350.99 696.00,358.34 C722.15,377.11 755.42,404.55 783.89,430.84 L 794.29 440.43 L 789.79 444.47 C740.73,488.47 707.68,515.19 680.00,533.23 ZM 320.23 757.50 C320.38,786.93 320.18,811.00 319.79,811.00 C317.32,811.00 317.00,804.43 317.00,754.57 L 317.00 702.00 L 406.95 702.00 L 412.46 704.61 C419.50,707.94 423.60,712.08 426.75,719.00 C429.03,724.01 429.25,725.65 429.17,737.50 C429.05,755.55 427.86,761.18 423.12,766.23 C416.52,773.26 414.29,774.99 411.81,774.99 C405.98,775.01 407.11,780.77 414.46,788.41 C417.39,791.46 420.96,795.88 422.40,798.23 C423.84,800.58 426.00,803.73 427.19,805.23 C428.39,806.74 429.13,808.21 428.83,808.50 C428.18,809.15 403.79,777.44 404.06,776.30 C404.16,775.86 405.88,775.01 407.87,774.42 C413.74,772.67 417.42,770.39 421.29,766.11 C426.87,759.92 428.31,753.55 427.80,737.12 C427.43,724.78 427.14,723.02 424.73,718.35 C423.27,715.52 420.37,711.79 418.28,710.07 C411.23,704.24 409.01,704.00 362.30,704.00 L 319.97 704.00 ZM 365.00 544.53 C365.00,545.33 363.59,544.95 361.50,543.59 C326.63,520.83 310.19,508.85 285.50,488.17 C271.00,476.04 231.00,441.01 231.00,440.45 C231.00,439.17 275.34,400.52 294.00,385.55 C317.94,366.34 356.12,339.00 359.01,339.00 C359.52,339.00 358.33,341.74 356.37,345.08 C348.28,358.89 339.81,380.40 335.99,396.86 C335.23,400.13 334.45,401.73 333.98,400.97 C333.56,400.29 333.66,398.33 334.21,396.62 C334.76,394.90 335.53,391.70 335.93,389.50 C336.87,384.26 338.73,378.67 341.58,372.50 C342.85,369.75 344.19,365.84 344.55,363.81 C344.91,361.78 346.73,357.74 348.61,354.83 C350.48,351.92 351.86,349.08 351.68,348.52 C351.09,346.73 347.31,346.83 345.45,348.70 C344.46,349.69 341.36,351.93 338.57,353.69 C333.16,357.09 330.70,358.89 325.51,363.25 C323.71,364.76 321.75,366.00 321.15,366.00 C320.56,366.00 319.59,366.90 319.00,368.00 C318.41,369.10 317.45,370.00 316.86,370.00 C315.42,370.00 303.00,379.93 303.00,381.07 C303.00,381.57 301.44,382.63 299.53,383.42 C297.62,384.22 294.53,386.36 292.66,388.19 C290.79,390.01 288.41,392.17 287.36,393.00 C277.96,400.39 271.00,406.37 271.00,407.05 C271.00,407.50 270.19,408.12 269.21,408.43 C268.22,408.75 263.95,412.27 259.71,416.25 C255.47,420.24 249.55,425.51 246.56,427.97 C243.57,430.43 240.91,433.24 240.66,434.21 C240.40,435.18 239.02,436.42 237.60,436.96 C236.17,437.51 235.00,438.67 235.00,439.55 C235.00,441.78 245.91,453.00 248.09,453.00 C249.07,453.00 251.13,454.90 252.70,457.25 C254.42,459.83 257.41,462.48 260.30,464.00 C262.92,465.38 265.88,467.85 266.87,469.50 C267.86,471.15 273.30,476.10 278.96,480.50 C284.63,484.90 290.44,489.64 291.88,491.04 C294.80,493.88 301.22,499.14 310.39,506.22 C313.75,508.82 317.11,511.46 317.85,512.10 C318.59,512.74 321.52,514.67 324.35,516.39 C327.18,518.11 331.90,521.42 334.84,523.75 C337.78,526.09 340.62,528.00 341.16,528.00 C341.70,528.00 344.25,529.75 346.82,531.88 C352.19,536.33 355.90,538.44 356.79,537.54 C357.13,537.20 356.88,535.51 356.22,533.78 C355.57,532.05 355.21,530.46 355.42,530.24 C355.80,529.87 365.00,543.59 365.00,544.53 ZM 545.08 785.08 L 542.15 788.00 L 515.83 788.00 C491.42,787.99 489.27,787.85 486.28,786.03 C484.50,784.95 482.79,783.02 482.47,781.76 C482.16,780.49 482.03,768.56 482.20,755.25 C482.49,731.60 482.55,731.00 484.78,728.78 L 487.05 726.50 L 527.99 726.00 C564.38,725.56 568.76,725.67 567.43,727.00 C566.15,728.28 560.16,728.52 526.93,728.61 L 487.92 728.72 L 485.40 731.10 L 482.88 733.47 L 483.19 757.62 L 483.50 781.78 L 486.00 783.86 C488.39,785.84 489.66,785.93 515.10,785.97 C539.61,786.00 541.82,785.86 543.35,784.17 C544.26,783.17 545.00,781.61 545.00,780.71 C545.00,777.73 540.85,776.61 528.72,776.35 C522.25,776.20 516.51,775.82 515.97,775.48 C514.50,774.57 514.72,752.29 516.21,751.37 C516.88,750.96 529.33,750.68 543.88,750.76 C565.78,750.88 570.59,751.16 571.81,752.39 C573.01,753.58 573.25,756.70 573.08,768.53 C572.77,789.92 571.14,791.31 571.06,770.25 L 571.00 753.00 L 516.93 753.00 L 517.22 763.75 L 517.50 774.50 L 532.75 774.78 L 548.00 775.05 L 548.00 778.60 C548.00,781.19 547.21,782.94 545.08,785.08 ZM 400.42 810.23 C401.08,810.68 400.84,810.98 399.80,810.98 C398.86,810.99 396.72,809.01 395.05,806.57 C393.37,804.13 391.14,801.86 390.10,801.53 C389.05,801.20 387.91,799.77 387.56,798.36 C386.76,795.21 384.40,791.78 375.90,781.50 C372.26,777.10 368.71,772.38 368.00,771.00 C367.30,769.62 364.54,765.48 361.88,761.79 C357.31,755.46 356.46,752.13 359.36,751.91 C359.99,751.86 368.75,751.75 378.83,751.66 L 397.17 751.50 L 399.58 748.70 C402.63,745.15 403.39,742.09 402.57,736.62 C402.18,734.02 402.04,732.25 401.15,731.06 C399.27,728.58 394.05,728.61 376.17,728.73 C375.00,728.74 373.77,728.75 372.49,728.75 C357.78,728.84 345.47,729.20 345.12,729.54 C344.78,729.89 344.25,748.02 343.94,769.83 L 343.38 809.50 L 343.00 726.00 L 370.92 726.00 C386.27,726.00 399.56,726.28 400.46,726.62 C403.28,727.70 405.00,732.59 405.00,739.50 C405.00,746.49 403.32,751.15 400.29,752.62 C399.30,753.10 389.56,753.72 378.64,753.99 L 358.77 754.50 L 370.54 770.50 C393.79,802.11 399.36,809.51 400.42,810.23 ZM 644.49 388.97 C647.00,396.10 644.53,393.26 640.81,384.75 C638.82,380.21 636.93,375.68 636.60,374.67 C635.80,372.22 629.29,362.30 625.80,358.22 C624.26,356.41 623.00,354.45 623.00,353.86 C623.00,351.21 603.67,331.21 600.29,330.36 C599.07,330.05 597.80,328.96 597.48,327.93 C596.85,325.94 591.69,321.80 590.32,322.18 C589.87,322.31 587.03,320.81 584.00,318.85 C575.48,313.33 565.54,308.21 560.28,306.61 C540.83,300.72 537.16,299.69 534.50,299.37 C532.85,299.17 528.26,298.56 524.29,298.02 C515.79,296.85 499.15,297.73 486.58,300.01 C483.32,300.60 479.95,300.92 479.08,300.73 C478.21,300.54 481.55,299.64 486.50,298.73 C543.92,288.19 599.06,312.17 630.83,361.50 C635.43,368.64 641.93,381.71 644.49,388.97 ZM 534.51 578.00 C522.85,579.99 505.61,580.51 499.50,579.05 C497.68,578.61 502.96,578.10 513.00,577.74 C533.81,576.99 538.25,576.25 554.00,570.90 C567.61,566.29 573.75,563.50 581.50,558.45 C585.90,555.58 590.50,552.93 591.72,552.56 C592.95,552.19 594.75,550.88 595.72,549.66 C596.70,548.44 599.08,546.45 601.00,545.25 C605.25,542.60 619.68,527.04 621.94,522.66 C622.84,520.92 624.91,518.11 626.54,516.42 C630.12,512.70 635.96,503.15 638.42,497.00 C641.83,488.46 644.36,483.57 644.75,484.75 C645.50,486.99 636.74,505.08 629.73,515.78 C624.79,523.32 619.27,529.92 611.11,538.05 C588.80,560.26 564.66,572.84 534.51,578.00 ZM 415.23 246.08 C403.60,249.66 402.27,249.72 407.81,246.40 C410.19,244.97 414.46,243.49 417.31,243.09 C420.17,242.70 423.48,241.84 424.68,241.19 C425.89,240.53 427.75,240.00 428.82,240.00 C429.89,240.00 432.96,239.37 435.64,238.59 C438.31,237.82 444.12,236.72 448.54,236.16 C452.96,235.60 458.58,234.43 461.04,233.56 C463.82,232.57 470.39,231.79 478.50,231.48 C485.65,231.21 495.05,230.47 499.39,229.85 C504.35,229.13 511.42,228.98 518.39,229.43 C524.50,229.83 532.88,230.33 537.00,230.54 C546.75,231.04 551.00,231.84 551.00,233.16 C551.00,233.81 550.11,233.96 548.75,233.54 C547.51,233.16 535.03,232.60 521.00,232.30 C500.99,231.87 492.20,232.11 480.14,233.42 C455.86,236.05 433.88,240.34 415.23,246.08 ZM 373.41 446.25 C373.74,454.91 373.78,462.00 373.50,462.00 C373.23,462.00 373.00,461.44 373.00,460.75 C373.00,460.06 372.54,454.67 371.98,448.76 C371.28,441.38 371.29,434.49 372.01,426.76 C376.71,376.11 405.76,333.19 450.56,310.71 C459.22,306.36 475.81,300.48 476.75,301.42 C477.78,302.44 475.07,303.81 470.52,304.58 C468.31,304.95 465.61,305.87 464.53,306.63 C463.44,307.38 461.68,308.00 460.60,308.00 C457.78,308.00 436.78,319.76 430.69,324.76 C427.84,327.10 423.37,330.62 420.76,332.59 C412.66,338.71 396.17,359.07 391.27,369.00 C390.59,370.38 389.59,372.17 389.05,373.00 C387.05,376.04 382.00,387.97 381.98,389.71 C381.96,390.69 380.81,394.20 379.42,397.50 C374.79,408.45 372.64,425.86 373.41,446.25 ZM 495.08 527.91 L 499.50 528.78 L 494.50 528.86 C491.75,528.90 488.83,528.56 488.00,528.10 C487.17,527.64 484.83,526.96 482.78,526.59 C480.74,526.22 478.49,525.37 477.78,524.69 C477.08,524.02 474.48,522.57 472.00,521.49 C469.52,520.40 465.26,518.04 462.52,516.25 C459.79,514.46 457.09,512.99 456.52,512.98 C455.96,512.97 454.15,511.35 452.50,509.38 C448.71,504.86 442.71,499.02 441.84,499.01 C441.28,499.00 435.01,488.79 430.18,480.00 C427.79,475.67 424.21,463.72 422.81,455.46 C420.79,443.52 421.32,427.11 424.01,418.00 C426.35,410.08 426.68,409.35 427.53,410.20 C427.83,410.49 427.09,414.28 425.89,418.62 C423.16,428.45 422.87,448.56 425.29,459.63 C429.70,479.84 443.99,501.66 460.04,512.67 C469.65,519.27 484.95,525.93 495.08,527.91 ZM 496.00 578.11 C496.00,578.60 495.66,578.93 495.25,578.85 C494.84,578.77 493.15,578.51 491.50,578.28 C489.85,578.05 484.97,576.97 480.65,575.89 C439.10,565.41 404.14,537.21 386.00,499.54 C382.81,492.92 379.86,486.38 379.45,485.01 C378.79,482.78 378.88,482.66 380.36,483.88 C381.26,484.63 382.00,485.91 382.00,486.72 C382.00,487.53 382.63,489.39 383.40,490.85 C384.17,492.31 386.39,496.88 388.32,501.02 C390.25,505.16 392.77,509.39 393.92,510.43 C395.06,511.46 396.01,512.80 396.02,513.40 C396.05,515.27 401.83,523.28 406.55,528.00 C409.03,530.47 412.90,534.64 415.15,537.25 C417.41,539.86 419.67,542.00 420.17,542.00 C420.67,542.00 423.58,544.47 426.63,547.50 C429.68,550.53 432.54,553.00 432.99,553.00 C433.43,553.00 436.14,554.58 439.00,556.50 C441.86,558.42 444.59,560.00 445.07,560.00 C445.54,560.00 448.03,561.33 450.59,562.96 C453.15,564.58 459.81,567.35 465.38,569.11 C470.94,570.87 476.17,572.64 477.00,573.05 C478.54,573.80 485.56,575.43 492.25,576.58 C494.31,576.93 496.00,577.62 496.00,578.11 ZM 430.66 404.25 C429.80,406.31 428.85,408.00 428.55,408.00 C427.32,408.00 428.11,402.16 429.50,401.00 C430.32,400.32 432.32,397.15 433.94,393.95 C437.36,387.24 438.39,385.86 446.50,377.18 C457.65,365.25 467.30,359.26 484.50,353.58 C493.29,350.67 501.07,349.75 517.29,349.70 C528.15,349.66 530.34,349.92 531.79,351.39 C533.41,353.04 533.34,353.09 530.50,352.32 C528.85,351.87 520.97,351.51 513.00,351.53 C496.55,351.55 487.43,353.43 474.23,359.53 C455.63,368.12 438.28,385.94 430.66,404.25 ZM 291.57 805.14 C292.44,806.82 292.96,808.37 292.73,808.60 C292.50,808.83 280.43,785.39 265.91,756.51 L 239.51 704.00 L 226.25 704.00 C218.08,704.00 213.00,703.62 213.00,703.00 C213.00,701.84 238.89,701.62 240.58,702.77 C241.18,703.17 243.17,706.88 245.02,711.00 C246.86,715.12 248.86,719.17 249.45,720.00 C250.03,720.83 251.22,723.08 252.09,725.00 C256.40,734.59 265.25,752.04 266.07,752.54 C266.58,752.86 267.00,753.94 267.00,754.94 C267.00,755.94 268.58,759.37 270.50,762.57 C272.42,765.77 274.00,768.92 274.00,769.57 C274.00,770.22 274.67,771.32 275.50,772.00 C276.33,772.68 277.00,774.02 277.00,774.97 C277.00,775.92 277.90,777.73 279.00,779.00 C280.10,780.27 281.00,781.80 281.00,782.39 C281.00,784.26 288.12,798.00 289.09,798.00 C289.59,798.00 290.00,798.92 290.00,800.05 C290.00,801.18 290.71,803.47 291.57,805.14 ZM 185.02 756.00 C170.44,785.15 158.16,809.00 157.75,809.00 C156.14,809.00 157.14,805.58 160.00,801.34 C161.65,798.90 163.00,796.67 163.00,796.40 C163.00,795.34 167.28,786.43 168.48,785.00 C169.17,784.17 170.03,782.26 170.38,780.75 C170.74,779.24 171.48,778.00 172.02,778.00 C172.56,778.00 173.00,777.28 173.00,776.41 C173.00,775.53 173.90,773.67 175.00,772.27 C176.10,770.87 177.00,769.19 177.00,768.52 C177.00,767.86 178.12,765.33 179.49,762.91 C180.85,760.48 182.26,757.83 182.61,757.00 C182.96,756.17 184.50,752.80 186.04,749.50 C191.87,736.99 193.00,734.33 193.00,733.18 C193.00,732.53 193.47,732.00 194.05,732.00 C194.63,732.00 195.57,730.65 196.15,729.00 C196.73,727.35 197.60,726.00 198.10,726.00 C198.59,726.00 199.00,725.43 199.00,724.74 C199.00,724.04 199.90,721.79 201.00,719.74 C202.10,717.69 203.00,715.33 203.00,714.50 C203.00,713.68 203.44,713.00 203.98,713.00 C204.52,713.00 205.25,711.76 205.61,710.25 C206.23,707.65 209.65,703.00 210.95,703.00 C211.28,703.00 199.61,726.85 185.02,756.00 ZM 246.63 770.80 C257.69,793.19 266.62,811.65 266.45,811.84 C265.78,812.60 258.94,802.25 257.97,799.00 C257.39,797.08 254.52,791.00 251.58,785.50 C245.04,773.27 240.56,764.29 235.08,752.50 C228.13,737.51 227.57,736.54 225.68,736.17 C224.67,735.98 222.94,736.65 221.82,737.66 C219.90,739.39 219.92,739.22 222.09,734.75 C223.36,732.14 224.87,730.02 225.45,730.05 C226.03,730.08 235.56,748.42 246.63,770.80 ZM 597.94 409.56 C599.13,412.74 599.96,416.50 599.80,417.91 C599.57,419.91 599.21,419.38 598.19,415.49 C597.47,412.75 596.00,408.53 594.94,406.12 L 593.00 401.74 L 587.70 407.25 C584.78,410.28 579.95,414.05 576.95,415.63 C571.95,418.26 570.63,418.50 560.95,418.50 C550.92,418.50 550.06,418.33 543.68,415.09 C533.20,409.77 525.03,399.30 523.40,389.08 C522.44,383.10 523.67,384.10 524.97,390.37 C525.69,393.82 526.99,396.58 528.64,398.12 C530.05,399.43 532.06,402.19 533.12,404.25 C534.18,406.31 535.41,408.00 535.86,408.00 C536.30,408.00 538.66,409.49 541.09,411.31 C543.51,413.13 547.64,415.16 550.26,415.81 C556.06,417.26 568.65,417.38 569.50,416.00 C569.84,415.45 571.10,414.99 572.31,414.97 C575.59,414.92 581.30,411.03 585.50,405.98 C587.55,403.52 589.84,401.15 590.58,400.72 C592.62,399.54 595.47,402.97 597.94,409.56 ZM 546.21 524.88 C544.17,525.92 540.03,527.04 537.00,527.38 L 531.50 527.99 L 537.85 526.11 C553.58,521.45 570.04,510.64 580.77,497.93 C588.37,488.92 596.22,473.60 598.91,462.50 C600.35,456.59 600.87,455.41 600.92,458.00 C601.05,465.55 593.90,483.43 587.12,492.50 C579.76,502.36 567.99,513.47 561.38,516.81 C558.08,518.47 554.79,520.55 554.07,521.42 C553.35,522.29 552.12,523.00 551.34,523.00 C550.56,523.00 548.25,523.85 546.21,524.88 ZM 542.10 649.44 C538.86,650.42 535.15,650.82 534.60,650.26 C534.28,649.95 532.33,649.36 530.26,648.96 C526.91,648.31 527.18,648.22 532.71,648.11 C547.56,647.84 583.22,641.90 603.00,636.41 C612.41,633.80 612.78,633.75 610.00,635.41 C608.62,636.23 605.03,637.43 602.00,638.06 C598.97,638.70 595.98,639.64 595.34,640.16 C594.70,640.67 592.22,641.29 589.84,641.52 C585.66,641.93 577.00,643.57 566.50,645.95 C563.75,646.57 557.49,647.50 552.60,648.02 C547.70,648.54 542.97,649.18 542.10,649.44 ZM 458.80 756.50 C458.97,772.37 458.71,784.00 458.19,784.00 C456.82,784.00 456.02,772.46 456.01,752.88 C456.00,735.93 456.54,729.00 457.88,729.00 C458.22,729.00 458.63,741.38 458.80,756.50 ZM 334.56 471.86 C336.16,480.51 335.88,483.43 333.95,478.39 C331.73,472.60 330.14,457.10 330.04,440.25 C329.97,427.70 330.26,423.00 331.11,423.00 C331.95,423.00 332.09,424.81 331.62,429.41 C330.83,437.15 332.43,460.33 334.56,471.86 ZM 193.11 796.35 C191.49,799.73 189.44,803.40 188.55,804.50 C187.05,806.37 187.03,806.26 188.35,803.00 C190.21,798.38 220.27,738.91 219.44,741.50 C217.52,747.47 216.59,749.65 215.37,751.07 C214.63,751.93 213.73,754.18 213.38,756.07 C213.02,757.95 211.95,760.40 211.01,761.50 C210.06,762.60 207.88,766.50 206.18,770.17 C204.48,773.83 202.66,777.09 202.14,777.41 C201.62,777.73 200.67,780.22 200.01,782.95 C199.36,785.67 198.20,788.42 197.44,789.05 C196.67,789.69 194.73,792.97 193.11,796.35 ZM 651.90 459.31 C651.29,463.26 650.40,467.17 649.91,468.00 C648.45,470.50 649.12,454.96 650.63,451.34 C652.20,447.58 652.50,430.46 651.08,425.00 C649.74,419.82 648.78,406.19 649.88,408.00 C652.82,412.83 654.09,445.05 651.90,459.31 ZM 349.64 517.19 C352.63,523.28 354.94,528.38 354.79,528.52 C353.88,529.32 349.18,522.70 347.32,518.00 C346.13,514.97 343.06,507.21 340.51,500.74 C337.83,493.96 336.01,487.82 336.20,486.24 C336.44,484.22 337.54,486.48 340.37,494.81 C342.48,501.04 346.65,511.11 349.64,517.19 ZM 459.00 726.66 C459.00,727.40 458.52,728.00 457.93,728.00 C457.27,728.00 457.15,727.15 457.62,725.75 C458.03,724.51 458.85,721.69 459.43,719.47 C461.24,712.65 475.64,702.00 483.06,702.00 C487.73,702.00 486.48,703.55 480.75,704.85 C472.55,706.72 465.63,712.05 462.03,719.26 C460.36,722.59 459.00,725.92 459.00,726.66 ZM 487.50 811.00 C486.82,812.10 482.61,812.17 479.50,811.13 C473.41,809.09 467.77,805.36 464.58,801.26 C459.63,794.91 460.08,793.67 465.21,799.50 C469.93,804.87 479.51,810.00 484.81,810.00 C486.76,810.00 487.86,810.41 487.50,811.00 ZM 555.27 808.86 C552.77,810.14 549.34,810.97 546.79,810.92 L 542.50 810.83 L 548.03 809.64 C558.78,807.32 566.05,801.13 569.56,791.30 C570.30,789.21 570.93,788.13 570.96,788.90 C570.98,789.67 570.05,792.90 568.89,796.09 C566.68,802.14 564.57,804.12 555.27,808.86 ZM 692.00 406.50 C692.66,410.35 693.00,415.08 692.76,417.00 L 692.32 420.50 L 692.16 416.86 C692.07,414.86 691.30,409.46 690.46,404.86 C689.12,397.61 688.25,394.01 685.33,383.50 C684.93,382.06 685.09,381.79 685.88,382.55 C687.10,383.69 690.11,395.50 692.00,406.50 ZM 694.97 437.50 C694.97,444.10 694.53,450.17 694.00,451.00 C693.35,452.00 693.03,447.55 693.03,437.50 C693.03,427.45 693.35,423.00 694.00,424.00 C694.53,424.83 694.97,430.90 694.97,437.50 ZM 603.13 439.00 C603.06,443.12 602.61,448.08 602.13,450.00 C601.47,452.61 601.28,450.83 601.37,443.00 C601.44,437.23 601.17,429.80 600.76,426.50 L 600.03 420.50 L 601.64 426.00 C602.56,429.16 603.19,434.70 603.13,439.00 ZM 526.76 369.12 C525.33,373.18 523.92,377.62 523.63,379.00 C523.34,380.38 523.27,378.98 523.47,375.89 C523.85,369.83 528.16,359.96 531.89,356.60 C534.71,354.05 534.58,355.53 531.68,358.97 C530.40,360.49 528.19,365.06 526.76,369.12 ZM 332.37 418.25 C331.82,422.00 329.99,423.55 330.01,420.25 C330.02,416.26 332.19,405.43 333.16,404.50 C334.17,403.54 333.94,407.47 332.37,418.25 ZM 648.32 475.75 C646.62,482.34 645.00,484.76 645.00,480.72 C645.00,477.60 647.85,470.00 649.01,470.00 C649.45,470.00 649.14,472.59 648.32,475.75 ZM 377.61 473.19 C378.46,475.76 379.01,478.91 378.83,480.19 C378.62,481.63 377.65,479.44 376.25,474.38 C374.06,466.47 373.14,459.28 375.11,465.50 C375.63,467.15 376.76,470.61 377.61,473.19 ZM 648.36 400.75 C649.20,403.64 649.55,406.00 649.13,406.00 C647.90,406.00 645.00,399.16 645.00,396.27 C645.00,392.46 646.53,394.50 648.36,400.75 ZM 497.92 648.64 C498.77,649.38 478.40,648.77 476.00,647.97 C474.57,647.50 478.65,647.38 485.50,647.71 C492.10,648.02 497.69,648.44 497.92,648.64 ZM 460.38 791.25 C460.74,792.76 460.65,794.00 460.19,794.00 C458.58,794.00 458.00,792.67 458.03,789.08 C458.06,785.21 459.20,786.25 460.38,791.25 Z" fill="rgb(20,80,171)"/>
<path d="M 0.00 0.00 L 1024.00 0.00 L 1024.00 1024.00 L 0.00 1024.00 ZM 637.00 626.77 C646.95,621.95 653.86,619.00 655.20,619.00 C656.34,619.00 671.00,611.85 680.50,606.65 C682.15,605.75 683.95,605.01 684.50,605.00 C685.05,605.00 688.59,602.96 692.37,600.48 C696.16,597.99 701.33,594.95 703.87,593.73 C706.42,592.50 711.02,589.58 714.09,587.25 C717.17,584.91 719.96,583.00 720.31,583.00 C721.09,583.00 729.07,577.94 731.03,576.20 C734.75,572.90 744.62,566.02 745.65,566.01 C746.27,566.00 748.97,563.93 751.65,561.40 C754.32,558.88 757.85,556.13 759.50,555.29 C761.15,554.46 764.08,552.31 766.00,550.51 C767.92,548.71 772.31,545.35 775.75,543.03 C779.19,540.72 782.00,538.48 782.00,538.07 C782.00,536.97 809.67,514.00 810.99,514.00 C811.59,514.00 814.06,511.86 816.47,509.25 C818.87,506.64 824.55,501.35 829.09,497.50 C846.20,482.97 881.03,449.65 884.26,444.72 C886.63,441.11 886.44,438.77 883.58,436.08 C882.25,434.83 880.62,432.50 879.96,430.90 C879.30,429.31 878.44,428.00 878.06,428.00 C876.55,428.00 868.71,420.50 866.41,416.85 C865.07,414.73 863.42,413.01 862.74,413.02 C862.06,413.03 859.03,410.56 856.00,407.53 C852.97,404.50 846.81,398.87 842.31,395.01 C837.80,391.15 829.88,383.83 824.71,378.74 C819.54,373.66 812.78,367.53 809.69,365.13 C806.60,362.73 803.37,359.69 802.51,358.38 C801.66,357.07 800.17,356.00 799.22,356.00 C798.27,356.00 795.24,353.76 792.50,351.03 C789.75,348.30 787.05,346.04 786.50,346.02 C785.95,346.00 783.25,343.87 780.50,341.30 C777.75,338.72 773.32,335.09 770.65,333.22 C767.98,331.35 764.30,328.29 762.48,326.41 C760.66,324.54 758.65,323.00 758.02,323.00 C756.66,323.00 749.86,318.07 748.70,316.26 C748.26,315.57 747.27,315.00 746.51,315.00 C745.74,315.00 744.49,314.11 743.73,313.02 C742.28,310.96 736.92,307.05 732.20,304.60 C730.69,303.82 727.68,301.56 725.53,299.59 C723.37,297.62 721.12,296.00 720.53,296.00 C719.94,296.00 717.06,294.42 714.14,292.50 C711.22,290.58 708.46,289.00 708.02,289.00 C707.57,289.00 706.15,287.88 704.85,286.52 C703.56,285.15 701.86,284.03 701.08,284.02 C700.30,284.01 698.91,283.33 698.00,282.50 C697.09,281.68 694.13,279.83 691.42,278.40 C688.72,276.96 683.58,274.21 680.00,272.29 C668.79,266.26 664.06,264.00 662.64,264.00 C661.89,264.00 660.20,263.20 658.88,262.22 C657.57,261.24 654.03,259.59 651.00,258.54 C647.97,257.49 642.21,255.14 638.19,253.32 C634.18,251.49 630.30,250.00 629.57,250.00 C628.84,250.00 625.67,248.86 622.53,247.47 C619.38,246.08 615.61,244.79 614.15,244.60 C612.69,244.41 610.38,243.80 609.00,243.25 C607.62,242.69 602.90,241.47 598.50,240.52 C594.10,239.58 587.80,238.19 584.50,237.43 C571.54,234.45 561.22,232.89 556.47,233.19 C551.83,233.48 552.10,233.59 560.50,234.84 C579.25,237.63 597.59,241.82 615.62,247.45 C596.46,241.48 576.97,237.16 557.00,234.42 C555.09,234.16 552.93,233.92 550.59,233.70 C550.85,233.61 551.00,233.43 551.00,233.16 C551.00,231.84 546.75,231.04 537.00,230.54 C532.88,230.33 524.50,229.83 518.39,229.43 C511.42,228.98 504.35,229.13 499.39,229.85 C495.05,230.47 485.65,231.21 478.50,231.48 C470.39,231.79 463.82,232.57 461.04,233.56 C458.58,234.43 452.96,235.60 448.54,236.16 C444.12,236.72 438.31,237.82 435.64,238.59 C432.96,239.37 429.89,240.00 428.82,240.00 C427.75,240.00 425.89,240.53 424.68,241.19 C423.48,241.84 420.17,242.70 417.31,243.09 C414.46,243.49 410.19,244.97 407.81,246.40 C404.30,248.50 403.55,249.25 406.43,248.60 C404.45,249.12 402.84,249.50 402.00,249.63 C400.08,249.93 397.83,250.72 397.00,251.38 C396.17,252.04 393.70,253.19 391.50,253.93 C389.72,254.52 387.30,255.45 384.46,256.59 C389.85,254.33 391.44,253.27 390.46,252.72 C389.41,252.13 387.36,252.64 384.20,254.27 C381.61,255.61 378.15,257.03 376.51,257.43 C374.86,257.83 372.89,258.67 372.14,259.30 C371.38,259.93 369.36,260.97 367.63,261.62 C360.32,264.38 353.05,267.77 346.50,271.49 C342.65,273.67 337.02,276.74 334.00,278.30 C326.48,282.19 321.98,284.86 315.77,289.09 C308.60,293.98 298.82,300.51 291.00,305.63 C287.42,307.97 283.78,310.51 282.90,311.29 C282.03,312.06 279.10,314.19 276.40,316.03 C273.71,317.87 267.23,322.94 262.00,327.30 C256.77,331.66 250.70,336.41 248.50,337.86 C246.30,339.31 243.91,341.28 243.19,342.25 C242.47,343.21 241.29,344.00 240.56,344.00 C239.83,344.00 238.49,345.12 237.59,346.50 C236.69,347.88 235.23,349.00 234.35,349.00 C233.47,349.00 230.97,351.02 228.79,353.50 C226.61,355.98 224.29,358.00 223.63,358.00 C222.98,358.00 219.75,360.75 216.47,364.11 C213.19,367.47 209.33,370.96 207.90,371.86 C206.47,372.76 199.27,379.18 191.90,386.13 C184.53,393.08 176.25,400.68 173.50,403.03 C170.75,405.38 161.64,414.31 153.25,422.88 C136.93,439.56 135.55,441.97 140.11,445.75 C141.27,446.71 144.62,449.98 147.56,453.00 C153.99,459.61 154.13,459.75 160.72,465.58 C163.58,468.13 166.18,470.99 166.48,471.95 C166.79,472.90 169.23,475.11 171.91,476.85 C174.59,478.58 177.03,480.64 177.33,481.41 C177.62,482.18 180.03,484.29 182.68,486.10 C187.26,489.23 196.00,497.45 196.00,498.63 C196.00,499.54 200.41,502.93 201.65,502.97 C202.28,502.99 206.60,506.83 211.24,511.50 C215.89,516.17 220.15,520.00 220.72,520.00 C221.29,520.00 222.37,520.74 223.12,521.64 C223.87,522.54 230.33,527.81 237.49,533.33 C244.65,538.86 252.31,545.21 254.52,547.44 C256.73,549.67 260.21,552.35 262.24,553.39 C264.27,554.43 269.88,558.48 274.71,562.39 C284.42,570.25 297.06,579.00 298.70,579.00 C299.28,579.00 300.33,579.69 301.02,580.53 C302.60,582.43 310.78,588.00 312.00,588.00 C312.50,588.00 313.26,588.63 313.70,589.39 C314.14,590.16 316.08,591.51 318.00,592.40 C324.38,595.35 332.50,600.46 335.22,603.25 C337.12,605.19 338.92,606.00 341.33,606.00 C343.60,606.00 345.22,606.66 346.13,607.97 C346.88,609.05 348.70,610.14 350.17,610.39 C351.64,610.63 355.23,612.45 358.16,614.42 C361.44,616.63 364.67,618.00 366.60,618.00 C368.32,618.00 370.87,618.90 372.27,620.00 C373.67,621.10 375.32,622.00 375.93,622.00 C376.54,622.00 380.87,623.81 385.55,626.02 C390.23,628.24 396.13,630.33 398.66,630.68 C401.20,631.02 405.35,632.36 407.89,633.65 C410.42,634.94 413.53,635.99 414.78,636.00 C416.04,636.00 418.51,636.60 420.28,637.33 C422.05,638.06 426.42,639.25 430.00,639.98 C433.58,640.70 437.39,641.75 438.48,642.30 C440.93,643.56 450.97,644.78 453.00,644.08 C453.40,643.94 453.64,643.82 453.72,643.72 C454.04,643.80 454.31,643.88 454.50,643.93 C459.85,645.50 465.21,646.20 482.00,647.56 L 482.26 647.58 C477.42,647.43 474.82,647.58 476.00,647.97 C478.40,648.77 498.77,649.38 497.92,648.64 C497.85,648.58 497.34,648.50 496.48,648.42 C518.61,649.25 541.07,647.98 562.97,644.72 C550.86,646.65 539.57,647.99 532.71,648.11 C527.18,648.22 526.91,648.31 530.26,648.96 C532.33,649.36 534.28,649.95 534.60,650.26 C535.15,650.82 538.86,650.42 542.10,649.44 C542.97,649.18 547.70,648.54 552.60,648.02 C557.49,647.50 563.75,646.57 566.50,645.95 C577.00,643.57 585.66,641.93 589.84,641.52 C592.22,641.29 594.70,640.67 595.34,640.16 C595.98,639.64 598.97,638.70 602.00,638.06 C605.03,637.43 608.62,636.23 610.00,635.41 C612.78,633.75 612.41,633.80 603.00,636.41 C599.33,637.43 595.11,638.47 590.57,639.48 C605.79,635.95 620.53,631.43 634.47,625.97 C628.75,628.39 625.69,630.01 626.59,630.21 C628.74,630.69 629.33,630.49 637.00,626.77 ZM 644.49 388.97 C641.93,381.71 635.43,368.64 630.83,361.50 C624.38,351.48 616.96,342.51 608.76,334.66 C626.99,351.93 640.88,374.29 648.18,400.17 C646.43,394.38 645.00,392.58 645.00,396.27 C645.00,399.16 647.90,406.00 649.13,406.00 C649.45,406.00 649.32,404.62 648.87,402.67 C649.45,404.90 649.99,407.14 650.47,409.41 C650.28,408.82 650.09,408.34 649.88,408.00 C648.78,406.19 649.74,419.82 651.08,425.00 C652.50,430.46 652.20,447.58 650.63,451.34 C649.12,454.96 648.45,470.50 649.91,468.00 C650.14,467.61 650.46,466.52 650.81,465.06 C650.47,467.05 650.09,468.88 649.68,470.50 C649.37,471.72 649.04,472.94 648.71,474.15 C649.23,471.76 649.38,470.00 649.01,470.00 C647.85,470.00 645.00,477.60 645.00,480.72 C645.00,483.24 645.63,483.25 646.52,481.29 C645.68,483.83 644.77,486.33 643.79,488.80 C644.56,486.75 644.93,485.29 644.75,484.75 C644.36,483.57 641.83,488.46 638.42,497.00 C635.96,503.15 630.12,512.70 626.54,516.42 C624.91,518.11 622.84,520.92 621.94,522.66 C619.68,527.04 605.25,542.60 601.00,545.25 C599.08,546.45 596.70,548.44 595.72,549.66 C594.75,550.88 592.95,552.19 591.72,552.56 C590.50,552.93 585.90,555.58 581.50,558.45 C573.75,563.50 567.61,566.29 554.00,570.90 C538.25,576.25 533.81,576.99 513.00,577.74 C502.96,578.10 497.68,578.61 499.50,579.05 C499.77,579.11 500.06,579.17 500.37,579.23 C498.83,579.08 497.30,578.91 495.76,578.71 C495.91,578.58 496.00,578.36 496.00,578.11 C496.00,577.62 494.31,576.93 492.25,576.58 C485.56,575.43 478.54,573.80 477.00,573.05 C476.17,572.64 470.94,570.87 465.38,569.11 C459.81,567.35 453.15,564.58 450.59,562.96 C448.03,561.33 445.54,560.00 445.07,560.00 C444.59,560.00 441.86,558.42 439.00,556.50 C436.14,554.58 433.43,553.00 432.99,553.00 C432.54,553.00 429.68,550.53 426.63,547.50 C423.58,544.47 420.67,542.00 420.17,542.00 C419.67,542.00 417.41,539.86 415.15,537.25 C412.90,534.64 409.03,530.47 406.55,528.00 C401.83,523.28 396.05,515.27 396.02,513.40 C396.01,512.80 395.06,511.46 393.92,510.43 C392.77,509.39 390.25,505.16 388.32,501.02 C386.39,496.88 384.17,492.31 383.40,490.85 C382.63,489.39 382.00,487.53 382.00,486.72 C382.00,485.91 381.26,484.63 380.36,483.88 C379.57,483.23 379.18,482.96 379.08,483.19 C376.80,476.84 375.08,470.72 374.03,465.17 C373.83,464.11 373.64,463.06 373.47,462.00 C373.48,462.00 373.49,462.00 373.50,462.00 C373.78,462.00 373.74,454.91 373.41,446.25 C372.64,425.86 374.79,408.45 379.42,397.50 C380.81,394.20 381.96,390.69 381.98,389.71 C382.00,387.97 387.05,376.04 389.05,373.00 C389.59,372.17 390.59,370.38 391.27,369.00 C396.17,359.07 412.66,338.71 420.76,332.59 C423.37,330.62 427.84,327.10 430.69,324.76 C436.78,319.76 457.78,308.00 460.60,308.00 C461.68,308.00 463.44,307.38 464.53,306.63 C465.61,305.87 468.31,304.95 470.52,304.58 C475.07,303.81 477.78,302.44 476.75,301.42 C475.94,300.61 463.53,304.86 454.57,308.83 C463.03,304.98 471.98,301.94 481.34,299.81 C479.50,300.27 478.57,300.62 479.08,300.73 C479.95,300.92 483.32,300.60 486.58,300.01 C499.15,297.73 515.79,296.85 524.29,298.02 C528.26,298.56 532.85,299.17 534.50,299.37 C537.16,299.69 540.83,300.72 560.28,306.61 C565.54,308.21 575.48,313.33 584.00,318.85 C587.03,320.81 589.87,322.31 590.32,322.18 C591.69,321.80 596.85,325.94 597.48,327.93 C597.80,328.96 599.07,330.05 600.29,330.36 C603.67,331.21 623.00,351.21 623.00,353.86 C623.00,354.45 624.26,356.41 625.80,358.22 C629.29,362.30 635.80,372.22 636.60,374.67 C636.93,375.68 638.82,380.21 640.81,384.75 C644.53,393.26 647.00,396.10 644.49,388.97 ZM 430.66 404.25 C435.10,393.58 442.84,383.08 452.21,374.48 C450.56,376.00 448.94,377.59 447.36,379.26 C434.63,392.66 426.67,409.74 424.25,428.12 C424.63,424.48 425.17,421.19 425.89,418.62 C427.09,414.28 427.83,410.49 427.53,410.20 C426.68,409.35 426.35,410.08 424.01,418.00 C421.32,427.11 420.79,443.52 422.81,455.46 C424.21,463.72 427.79,475.67 430.18,480.00 C435.01,488.79 441.28,499.00 441.84,499.01 C442.71,499.02 448.71,504.86 452.50,509.38 C454.15,511.35 455.96,512.97 456.52,512.98 C457.09,512.99 459.79,514.46 462.52,516.25 C465.26,518.04 469.52,520.40 472.00,521.49 C474.48,522.57 477.08,524.02 477.78,524.69 C478.49,525.37 480.74,526.22 482.78,526.59 C484.83,526.96 487.17,527.64 488.00,528.10 C488.83,528.56 491.75,528.90 494.50,528.86 L 498.41 528.80 L 498.50 528.82 C505.24,530.58 525.39,529.59 534.50,527.06 C541.91,525.01 548.89,522.16 555.34,518.60 C549.63,521.80 543.69,524.38 537.85,526.11 L 531.50 527.99 L 537.00 527.38 C540.03,527.04 544.17,525.92 546.21,524.88 C548.25,523.85 550.56,523.00 551.34,523.00 C552.12,523.00 553.35,522.29 554.07,521.42 C554.79,520.55 558.08,518.47 561.38,516.81 C567.99,513.47 579.76,502.36 587.12,492.50 C593.90,483.43 601.05,465.55 600.92,458.00 C600.87,455.41 600.35,456.59 598.91,462.50 C598.20,465.44 597.12,468.69 595.78,472.03 C598.68,464.70 600.11,458.06 601.11,448.54 C601.21,447.55 601.29,446.54 601.35,445.51 C601.33,451.19 601.55,452.30 602.13,450.00 C602.61,448.08 603.06,443.12 603.13,439.00 C603.19,434.70 602.56,429.16 601.64,426.00 L 600.03 420.50 L 600.76 426.50 C600.99,428.31 601.17,431.37 601.28,434.72 C600.90,428.87 600.02,422.89 598.75,417.50 C599.35,419.49 599.61,419.49 599.80,417.91 C599.96,416.50 599.13,412.74 597.94,409.56 C595.47,402.97 592.62,399.54 590.58,400.72 C589.84,401.15 587.55,403.52 585.50,405.98 C581.30,411.03 575.59,414.92 572.31,414.97 C571.10,414.99 569.84,415.45 569.50,416.00 C568.65,417.38 556.06,417.26 550.26,415.81 C547.64,415.16 543.51,413.13 541.09,411.31 C538.66,409.49 536.30,408.00 535.86,408.00 C535.41,408.00 534.18,406.31 533.12,404.25 C532.06,402.19 530.05,399.43 528.64,398.12 C526.99,396.58 525.69,393.82 524.97,390.37 C524.42,387.72 523.89,386.01 523.52,385.37 C523.50,384.24 523.50,382.96 523.50,381.50 C523.50,380.78 523.50,380.10 523.50,379.47 C523.54,379.39 523.58,379.24 523.63,379.00 C523.92,377.62 525.33,373.18 526.76,369.12 C528.19,365.06 530.40,360.49 531.68,358.97 C534.49,355.62 534.70,354.14 532.12,356.39 C533.34,355.01 534.07,353.73 533.78,353.44 C533.16,352.83 530.00,352.25 525.84,351.84 C528.14,351.97 529.83,352.14 530.50,352.32 C533.34,353.09 533.41,353.04 531.79,351.39 C530.34,349.92 528.15,349.66 517.29,349.70 C501.07,349.75 493.29,350.67 484.50,353.58 C467.30,359.26 457.65,365.25 446.50,377.18 C438.39,385.86 437.36,387.24 433.94,393.95 C432.32,397.15 430.32,400.32 429.50,401.00 C428.11,402.16 427.32,408.00 428.55,408.00 C428.85,408.00 429.80,406.31 430.66,404.25 ZM 708.20 810.15 C714.47,808.09 721.19,801.96 724.91,794.92 L 728.29 788.50 L 728.50 722.38 L 726.00 719.26 C724.62,717.54 722.38,714.53 721.00,712.56 C717.98,708.23 709.34,703.56 702.70,702.67 C700.05,702.31 681.51,702.00 661.48,701.97 L 625.07 701.93 L 618.33 705.63 C611.10,709.60 607.94,712.74 604.30,719.58 C602.04,723.84 602.00,724.43 602.01,755.70 C602.01,774.26 602.44,789.03 603.03,791.18 C603.59,793.20 605.50,797.02 607.28,799.68 C611.09,805.38 619.28,809.88 628.00,811.06 C637.22,812.30 703.96,811.55 708.20,810.15 ZM 692.00 406.50 C690.11,395.50 687.10,383.69 685.88,382.55 C685.09,381.79 684.93,382.06 685.33,383.50 C687.64,391.79 688.66,395.79 689.65,400.66 C686.20,384.70 680.47,368.50 673.27,354.29 C676.50,360.65 679.53,367.56 682.55,375.40 C684.86,381.40 684.90,381.44 684.95,377.77 C684.98,375.30 683.98,372.37 682.00,369.15 C680.35,366.47 679.00,363.73 679.00,363.05 C679.00,362.38 677.42,359.01 675.50,355.57 C669.35,344.57 670.92,343.05 680.94,350.28 C684.92,353.15 690.33,356.85 692.95,358.50 C695.58,360.15 699.03,362.55 700.61,363.83 C702.20,365.11 706.28,368.26 709.68,370.83 C722.91,380.84 736.61,391.86 738.92,394.37 C740.26,395.82 741.90,397.00 742.57,397.00 C743.24,397.00 746.38,399.81 749.56,403.25 C752.74,406.69 756.38,409.95 757.66,410.50 C758.94,411.05 762.13,413.56 764.75,416.07 C767.36,418.58 770.45,421.28 771.60,422.07 C772.76,422.86 777.41,426.93 781.94,431.13 L 790.17 438.76 L 787.69 442.70 C786.32,444.86 784.15,447.34 782.85,448.19 C781.56,449.05 778.25,451.96 775.50,454.66 C770.65,459.42 757.97,470.72 753.12,474.60 C749.85,477.21 742.35,483.42 737.32,487.69 C735.02,489.64 731.81,492.05 730.18,493.04 C728.55,494.03 727.06,495.24 726.86,495.73 C726.66,496.23 723.80,498.76 720.50,501.37 C717.20,503.97 712.52,507.77 710.11,509.80 C707.69,511.84 704.71,514.17 703.49,515.00 C702.27,515.83 699.34,517.85 696.97,519.50 C690.03,524.35 687.59,525.94 686.00,526.64 C685.17,527.00 683.38,528.28 682.00,529.49 C677.08,533.82 667.00,538.47 667.00,536.41 C667.00,535.17 675.38,520.00 676.06,520.00 C676.46,520.00 677.08,518.81 677.45,517.35 C677.81,515.90 679.66,511.44 681.56,507.45 C683.45,503.46 685.00,499.20 685.00,498.00 C685.00,496.79 685.63,494.38 686.40,492.65 C689.49,485.68 694.38,459.46 693.02,457.13 C692.26,455.84 692.05,456.14 692.03,458.58 C692.01,460.17 691.74,462.57 691.29,465.44 C693.10,450.28 693.07,423.73 691.22,409.34 C691.72,412.54 692.10,415.49 692.16,416.86 L 692.32 420.50 L 692.76 417.00 C693.00,415.08 692.66,410.35 692.00,406.50 ZM 334.56 471.86 C333.92,468.36 333.32,463.78 332.82,458.89 C334.70,474.75 338.58,490.44 344.37,505.31 C342.80,501.50 341.36,497.73 340.37,494.81 C337.54,486.48 336.44,484.22 336.20,486.24 C336.01,487.82 337.83,493.96 340.51,500.74 C343.06,507.21 346.13,514.97 347.32,518.00 C349.18,522.70 353.88,529.32 354.79,528.52 C354.87,528.44 354.18,526.80 353.04,524.31 C355.38,528.75 357.91,533.08 360.62,537.28 C360.76,537.49 360.89,537.70 361.02,537.90 C358.48,534.06 355.63,530.04 355.42,530.24 C355.21,530.46 355.57,532.05 356.22,533.78 C356.88,535.51 357.13,537.20 356.79,537.54 C355.90,538.44 352.19,536.33 346.82,531.88 C344.25,529.75 341.70,528.00 341.16,528.00 C340.62,528.00 337.78,526.09 334.84,523.75 C331.90,521.42 327.18,518.11 324.35,516.39 C321.52,514.67 318.59,512.74 317.85,512.10 C317.11,511.46 313.75,508.82 310.39,506.22 C301.22,499.14 294.80,493.88 291.88,491.04 C290.44,489.64 284.63,484.90 278.96,480.50 C273.30,476.10 267.86,471.15 266.87,469.50 C265.88,467.85 262.92,465.38 260.30,464.00 C257.41,462.48 254.42,459.83 252.70,457.25 C251.13,454.90 249.07,453.00 248.09,453.00 C245.91,453.00 235.00,441.78 235.00,439.55 C235.00,438.67 236.17,437.51 237.60,436.96 C239.02,436.42 240.40,435.18 240.66,434.21 C240.91,433.24 243.57,430.43 246.56,427.97 C249.55,425.51 255.47,420.24 259.71,416.25 C263.95,412.27 268.22,408.75 269.21,408.43 C270.19,408.12 271.00,407.50 271.00,407.05 C271.00,406.37 277.96,400.39 287.36,393.00 C288.41,392.17 290.79,390.01 292.66,388.19 C294.53,386.36 297.62,384.22 299.53,383.42 C301.44,382.63 303.00,381.57 303.00,381.07 C303.00,379.93 315.42,370.00 316.86,370.00 C317.45,370.00 318.41,369.10 319.00,368.00 C319.59,366.90 320.56,366.00 321.15,366.00 C321.75,366.00 323.71,364.76 325.51,363.25 C330.70,358.89 333.16,357.09 338.57,353.69 C341.36,351.93 344.46,349.69 345.45,348.70 C347.31,346.83 351.09,346.73 351.68,348.52 C351.86,349.08 350.48,351.92 348.61,354.83 C346.73,357.74 344.91,361.78 344.55,363.81 C344.19,365.84 342.85,369.75 341.58,372.50 C338.73,378.67 336.87,384.26 335.93,389.50 C335.53,391.70 334.76,394.90 334.21,396.62 C333.66,398.33 333.56,400.29 333.98,400.97 C334.45,401.73 335.23,400.13 335.99,396.86 C337.51,390.32 339.76,382.98 342.43,375.64 C339.38,384.23 336.85,393.07 335.10,401.50 C333.47,409.36 332.40,417.38 331.89,425.47 C331.90,423.74 331.64,423.00 331.11,423.00 C330.26,423.00 329.97,427.70 330.04,440.25 C330.14,457.10 331.73,472.60 333.95,478.39 C335.88,483.43 336.16,480.51 334.56,471.86 ZM 850.23 809.81 C852.28,808.88 854.95,807.19 856.17,806.06 C857.38,804.93 858.72,804.00 859.14,804.00 C859.55,804.00 861.60,801.42 863.70,798.27 L 867.50 792.54 L 867.50 778.52 C867.50,762.02 866.48,759.20 857.81,751.61 C849.73,744.55 846.75,744.00 816.20,744.00 L 790.21 744.00 L 787.10 740.47 C783.34,736.18 782.98,731.83 786.20,729.57 C788.09,728.25 793.61,728.03 824.74,728.03 C846.70,728.03 861.81,727.64 862.92,727.04 C865.19,725.83 865.59,723.06 865.18,711.25 L 864.86 702.00 L 778.89 702.00 L 773.20 705.12 C760.60,712.02 757.00,718.92 757.00,736.16 C757.00,746.29 757.12,746.85 760.97,754.82 C763.16,759.34 765.75,763.31 766.72,763.64 C767.70,763.97 770.30,765.07 772.50,766.07 C779.75,769.39 785.23,769.95 810.82,769.98 C825.06,769.99 836.92,770.42 837.93,770.96 C840.97,772.59 842.46,777.48 840.98,781.04 C840.29,782.71 838.92,784.51 837.93,785.04 C836.87,785.60 820.77,786.00 798.76,786.00 C770.01,786.00 760.98,786.29 759.64,787.28 C757.69,788.70 757.36,792.09 758.21,802.16 C758.76,808.70 759.44,811.00 760.81,811.00 C761.02,811.00 761.17,809.40 761.23,806.90 C761.36,808.88 761.53,810.20 761.73,810.39 C762.13,810.79 780.92,810.98 803.50,810.81 L 844.55 810.50 L 803.52 811.07 L 762.50 811.64 L 804.50 811.57 C841.69,811.51 846.93,811.31 850.23,809.81 ZM 459.00 726.66 C459.00,726.27 459.37,725.18 459.96,723.75 C458.63,727.17 458.57,729.91 458.54,739.40 C458.54,740.14 458.54,740.96 458.54,741.84 C458.35,734.14 458.10,729.00 457.88,729.00 C456.54,729.00 456.00,735.93 456.01,752.88 C456.02,772.46 456.82,784.00 458.19,784.00 C458.63,784.00 458.88,775.56 458.84,763.25 C458.91,766.13 458.98,768.93 459.05,771.50 C459.54,788.26 459.85,790.97 461.71,794.50 C462.53,796.06 463.55,797.55 464.73,798.96 C460.06,793.76 459.79,795.12 464.58,801.26 C467.77,805.36 473.41,809.09 479.50,811.13 C482.61,812.17 486.82,812.10 487.50,811.00 C487.66,810.73 487.53,810.51 487.16,810.33 C499.61,811.06 537.64,810.56 548.52,809.53 C548.35,809.57 548.19,809.61 548.03,809.64 L 542.50 810.83 L 546.79 810.92 C549.34,810.97 552.77,810.14 555.27,808.86 C564.57,804.12 566.68,802.14 568.89,796.09 C570.05,792.90 570.98,789.67 570.96,788.90 C570.94,788.51 570.78,788.59 570.53,789.03 L 570.83 771.75 L 571.03 760.36 L 571.06 770.25 C571.14,791.31 572.77,789.92 573.08,768.53 C573.25,756.70 573.01,753.58 571.81,752.39 C570.59,751.16 565.78,750.88 543.88,750.76 C529.33,750.68 516.88,750.96 516.21,751.37 C514.72,752.29 514.50,774.57 515.97,775.48 C516.51,775.82 522.25,776.20 528.72,776.35 C540.85,776.61 545.00,777.73 545.00,780.71 C545.00,781.61 544.26,783.17 543.35,784.17 C541.82,785.86 539.61,786.00 515.10,785.97 C489.66,785.93 488.39,785.84 486.00,783.86 L 483.50 781.78 L 483.19 757.62 L 482.88 733.47 L 485.40 731.10 L 487.92 728.72 L 526.93 728.61 C560.16,728.52 566.15,728.28 567.43,727.00 C568.76,725.67 564.38,725.56 527.99,726.00 L 517.21 726.13 C520.39,726.09 523.90,726.05 527.78,726.00 L 568.50 725.50 L 568.50 703.50 L 528.71 703.24 C501.77,703.06 489.43,703.15 481.92,704.57 C486.63,703.33 487.39,702.00 483.06,702.00 C475.64,702.00 461.24,712.65 459.43,719.47 C458.85,721.69 458.03,724.51 457.62,725.75 C457.15,727.15 457.27,728.00 457.93,728.00 C458.52,728.00 459.00,727.40 459.00,726.66 ZM 400.42 810.23 C401.74,811.13 427.41,811.25 428.30,810.37 C428.68,809.98 425.75,805.68 419.16,797.02 C424.17,803.43 428.56,808.77 428.83,808.50 C429.13,808.21 428.39,806.74 427.19,805.23 C426.00,803.73 423.84,800.58 422.40,798.23 C420.96,795.88 417.39,791.46 414.46,788.41 C407.11,780.77 405.98,775.01 411.81,774.99 C414.29,774.99 416.52,773.26 423.12,766.23 C427.86,761.18 429.05,755.55 429.17,737.50 C429.25,725.65 429.03,724.01 426.75,719.00 C423.60,712.08 419.50,707.94 412.46,704.61 L 406.95 702.00 L 317.00 702.00 L 317.00 754.57 C317.00,804.43 317.32,811.00 319.79,811.00 C319.98,811.00 320.13,804.87 320.21,795.01 C320.34,804.33 320.51,810.18 320.70,810.37 C321.08,810.75 326.15,810.94 331.95,810.78 L 342.50 810.50 L 342.76 768.25 L 343.01 728.02 L 343.38 809.50 L 343.94 769.83 C344.25,748.02 344.78,729.89 345.12,729.54 C345.47,729.20 357.78,728.84 372.49,728.75 C373.77,728.75 375.00,728.74 376.17,728.73 C394.05,728.61 399.27,728.58 401.15,731.06 C402.04,732.25 402.18,734.02 402.57,736.62 C403.39,742.09 402.63,745.15 399.58,748.70 L 397.17 751.50 L 378.83 751.66 C368.75,751.75 359.99,751.86 359.36,751.91 C356.46,752.13 357.31,755.46 361.88,761.79 C364.54,765.48 367.30,769.62 368.00,771.00 C368.71,772.38 372.26,777.10 375.90,781.50 C384.40,791.78 386.76,795.21 387.56,798.36 C387.91,799.77 389.05,801.20 390.10,801.53 C391.14,801.86 393.37,804.13 395.05,806.57 C396.72,809.01 398.86,810.99 399.80,810.98 C400.84,810.98 401.08,810.68 400.42,810.23 ZM 291.57 805.14 C290.71,803.47 290.00,801.18 290.00,800.05 C290.00,798.92 289.59,798.00 289.09,798.00 C288.12,798.00 281.00,784.26 281.00,782.39 C281.00,781.80 280.10,780.27 279.00,779.00 C277.90,777.73 277.00,775.92 277.00,774.97 C277.00,774.02 276.33,772.68 275.50,772.00 C274.67,771.32 274.00,770.22 274.00,769.57 C274.00,768.92 272.42,765.77 270.50,762.57 C268.58,759.37 267.00,755.94 267.00,754.94 C267.00,753.94 266.58,752.86 266.07,752.54 C265.25,752.04 256.40,734.59 252.09,725.00 C251.22,723.08 250.03,720.83 249.45,720.00 C248.86,719.17 246.86,715.12 245.02,711.00 C243.17,706.88 241.18,703.17 240.58,702.77 C238.89,701.62 213.00,701.84 213.00,703.00 C213.00,703.62 218.08,704.00 226.25,704.00 L 239.51 704.00 L 251.84 728.52 L 239.50 704.00 L 225.26 704.00 L 211.02 704.00 L 191.41 743.21 C202.86,720.18 211.23,703.00 210.95,703.00 C209.65,703.00 206.23,707.65 205.61,710.25 C205.25,711.76 204.52,713.00 203.98,713.00 C203.44,713.00 203.00,713.68 203.00,714.50 C203.00,715.33 202.10,717.69 201.00,719.74 C199.90,721.79 199.00,724.04 199.00,724.74 C199.00,725.43 198.59,726.00 198.10,726.00 C197.60,726.00 196.73,727.35 196.15,729.00 C195.57,730.65 194.63,732.00 194.05,732.00 C193.47,732.00 193.00,732.53 193.00,733.18 C193.00,734.33 191.87,736.99 186.04,749.50 C184.50,752.80 182.96,756.17 182.61,757.00 C182.26,757.83 180.85,760.48 179.49,762.91 C178.12,765.33 177.00,767.86 177.00,768.52 C177.00,769.19 176.10,770.87 175.00,772.27 C173.90,773.67 173.00,775.53 173.00,776.41 C173.00,777.28 172.56,778.00 172.02,778.00 C171.48,778.00 170.74,779.24 170.38,780.75 C170.03,782.26 169.17,784.17 168.48,785.00 C167.28,786.43 163.00,795.34 163.00,796.40 C163.00,796.67 161.65,798.90 160.00,801.34 C157.14,805.58 156.14,809.00 157.75,809.00 C158.13,809.00 168.56,788.78 181.60,762.83 C168.47,789.18 158.41,810.08 158.72,810.39 C159.06,810.73 165.12,811.00 172.20,811.00 C183.57,811.00 185.13,810.80 185.62,809.25 C185.82,808.60 186.66,806.74 187.95,804.00 C187.05,806.26 187.22,806.15 188.55,804.50 C189.44,803.40 191.49,799.73 193.11,796.35 C194.73,792.97 196.67,789.69 197.44,789.05 C198.20,788.42 199.36,785.67 200.01,782.95 C200.67,780.22 201.62,777.73 202.14,777.41 C202.66,777.09 204.48,773.83 206.18,770.17 C207.88,766.50 210.06,762.60 211.01,761.50 C211.95,760.40 213.02,757.95 213.38,756.07 C213.73,754.18 214.63,751.93 215.37,751.07 C216.59,749.65 217.52,747.47 219.44,741.50 C219.84,740.27 213.21,753.14 205.96,767.46 C211.49,756.47 216.97,745.72 220.71,738.59 C220.95,738.44 221.32,738.12 221.82,737.66 C222.94,736.65 224.67,735.98 225.68,736.17 C227.57,736.54 228.13,737.51 235.08,752.50 C240.56,764.29 245.04,773.27 251.58,785.50 C254.52,791.00 257.39,797.08 257.97,799.00 C258.94,802.25 265.78,812.60 266.45,811.84 C266.62,811.65 257.69,793.19 246.63,770.80 C235.58,748.47 226.07,730.16 225.45,730.05 L 225.46 730.05 C226.03,730.08 235.50,748.19 246.50,770.30 L 266.50 810.50 L 278.44 810.78 C285.01,810.94 290.95,810.85 291.63,810.59 C292.42,810.28 284.93,794.41 269.08,762.82 C282.15,788.73 292.52,808.81 292.73,808.60 C292.96,808.37 292.44,806.82 291.57,805.14 ZM 631.81 784.20 C628.45,780.18 628.00,776.87 628.00,756.40 C628.00,734.33 628.68,730.82 633.30,729.09 C634.96,728.47 669.28,728.41 697.72,728.98 C698.40,728.99 699.64,730.33 700.47,731.95 C701.70,734.32 702.00,739.02 702.00,755.80 C702.00,768.13 701.56,777.97 700.93,779.78 C698.78,785.95 698.23,786.04 664.12,785.97 C636.30,785.91 633.08,785.74 631.81,784.20 ZM 694.97 437.50 C694.97,430.90 694.53,424.83 694.00,424.00 C693.35,423.00 693.03,427.45 693.03,437.50 C693.03,447.55 693.35,452.00 694.00,451.00 C694.53,450.17 694.97,444.10 694.97,437.50 ZM 332.37 418.25 C333.94,407.47 334.17,403.54 333.16,404.50 C332.19,405.43 330.02,416.26 330.01,420.25 C329.99,423.55 331.82,422.00 332.37,418.25 ZM 377.61 473.19 C376.76,470.61 375.63,467.15 375.11,465.50 C373.14,459.28 374.06,466.47 376.25,474.38 C377.65,479.44 378.62,481.63 378.83,480.19 C379.01,478.91 378.46,475.76 377.61,473.19 ZM 460.38 791.25 C459.20,786.25 458.06,785.21 458.03,789.08 C458.00,792.67 458.58,794.00 460.19,794.00 C460.65,794.00 460.74,792.76 460.38,791.25 ZM 366.72 615.70 C330.78,599.34 294.97,576.68 256.50,546.18 C294.32,576.17 330.78,599.20 366.72,615.70 ZM 621.60 526.74 C617.88,531.30 613.85,535.67 609.52,539.84 C602.25,546.85 594.64,552.90 586.64,558.05 C595.15,552.51 603.24,545.88 611.11,538.05 C615.17,534.00 618.59,530.33 621.60,526.74 ZM 515.96 232.20 C502.28,232.09 488.85,232.47 480.14,233.42 C474.37,234.04 468.74,234.76 463.25,235.57 C468.74,234.76 474.37,234.04 480.14,233.42 C491.13,232.22 499.41,231.92 515.96,232.20 ZM 428.93 471.54 C427.38,467.57 426.15,463.57 425.29,459.63 C424.67,456.80 424.23,453.38 423.96,449.70 C423.98,449.90 424.00,450.11 424.03,450.32 C424.83,457.72 426.48,464.82 428.93,471.54 ZM 527.56 362.84 C525.67,366.53 524.12,370.96 523.61,374.49 C523.84,370.26 524.50,368.57 526.36,365.00 C526.72,364.30 527.13,363.57 527.56,362.84 ZM 413.03 789.05 C411.40,786.94 409.63,784.68 407.73,782.25 C404.45,778.06 403.27,775.87 404.16,775.61 C404.92,775.39 405.64,775.17 406.34,774.95 C405.07,775.44 404.13,775.98 404.06,776.30 C403.95,776.77 408.10,782.53 413.03,789.05 ZM 408.11 774.35 C413.44,772.46 416.85,770.36 420.15,767.09 C422.15,765.11 423.68,763.22 424.84,761.08 C423.91,762.88 422.74,764.50 421.29,766.11 C417.47,770.33 413.84,772.61 408.11,774.35 ZM 474.59 520.78 C469.26,518.31 464.13,515.49 460.04,512.67 C455.12,509.30 450.37,504.91 446.02,499.87 C447.12,501.09 448.26,502.30 449.44,503.48 C456.81,510.85 461.88,514.42 472.55,519.78 C473.24,520.12 473.91,520.46 474.59,520.78 ZM 381.54 257.79 C373.48,261.14 363.12,265.78 354.64,269.86 C363.63,265.40 372.48,261.42 381.26,257.90 C381.36,257.86 381.45,257.83 381.54,257.79 ZM 478.11 575.22 C453.99,568.80 431.51,555.91 413.52,538.04 C431.16,555.54 453.42,568.52 478.11,575.22 ZM 586.93 489.37 C584.93,492.55 582.84,495.48 580.77,497.93 C577.67,501.60 574.09,505.11 570.20,508.37 C576.67,502.88 582.30,496.50 586.93,489.37 ZM 499.14 352.19 C492.06,353.19 485.37,354.93 479.04,357.42 C485.91,354.60 491.96,352.99 499.14,352.19 ZM 676.27 514.85 C680.17,506.21 683.59,497.04 686.26,488.09 C685.68,490.18 685.08,492.18 684.50,494.00 C682.40,500.49 679.50,507.78 676.27,514.85 ZM 642.28 492.49 C639.15,499.83 635.45,506.85 631.18,513.52 C635.24,506.97 639.62,498.56 642.28,492.49 ZM 642.95 622.52 C659.43,615.62 678.30,606.61 690.84,599.63 C677.73,606.93 658.32,616.22 642.95,622.52 ZM 523.94 391.62 C526.40,401.00 534.07,410.21 543.68,415.09 C536.05,411.22 530.41,405.61 526.31,397.84 C525.02,395.38 524.31,393.83 523.94,391.62 ZM 495.05 527.91 C490.60,527.03 485.15,525.26 479.62,522.98 C483.83,524.66 488.50,526.14 495.05,527.91 ZM 282.21 314.49 C256.64,333.06 229.09,355.57 199.50,382.07 C229.37,355.32 256.65,332.99 282.21,314.49 ZM 651.75 416.10 C652.59,421.44 652.99,428.53 652.97,436.01 C652.86,428.71 652.43,421.47 651.75,416.10 ZM 331.73 428.27 C331.51,432.91 331.46,437.57 331.60,442.23 C331.36,436.83 331.34,432.15 331.62,429.41 C331.66,429.01 331.70,428.63 331.73,428.27 ZM 567.94 795.07 C565.64,799.57 562.38,803.12 558.20,805.69 C562.03,803.14 565.33,799.71 567.42,796.00 ZM 372.72 456.95 C372.19,452.84 371.84,448.75 371.66,444.68 C371.74,446.03 371.85,447.38 371.98,448.76 C372.27,451.82 372.53,454.74 372.72,456.95 ZM 449.56 642.70 C446.24,642.05 441.86,641.05 437.09,639.88 C437.90,640.06 438.70,640.24 439.50,640.42 C443.09,641.21 446.72,642.03 449.56,642.70 ZM 534.51 578.00 C528.26,579.07 521.97,579.66 515.70,579.79 C522.02,579.57 528.91,578.96 534.51,578.00 ZM 548.74 233.54 C545.19,233.24 541.27,232.99 537.13,232.78 C543.49,233.04 547.99,233.32 548.74,233.54 ZM 425.84 326.39 C432.38,321.22 439.40,316.60 446.86,312.63 C439.37,316.66 432.35,321.26 425.84,326.39 ZM 489.75 298.17 C498.04,296.81 506.27,296.20 514.38,296.29 C506.27,296.22 498.04,296.84 489.75,298.17 ZM 761.00 792.49 L 760.88 788.00 L 761.00 788.00 ZM 594.12 404.28 L 592.88 401.86 L 593.00 401.74 ZM 385.98 499.54 C385.44,498.43 384.91,497.31 384.40,496.20 C384.92,497.29 385.45,498.42 386.00,499.54 C388.80,505.36 392.00,510.94 395.56,516.28 C392.01,510.96 388.80,505.38 385.98,499.54 ZM 473.80 707.41 C472.63,708.06 471.49,708.80 470.25,709.65 C470.05,709.79 469.85,709.93 469.65,710.07 C470.94,709.07 472.33,708.18 473.80,707.41 ZM 320.00 710.87 L 319.97 704.00 L 320.00 704.00 ZM 413.52 538.04 C406.83,531.41 400.81,524.13 395.57,516.29 C400.84,524.17 406.88,531.44 413.52,538.04 ZM 415.23 246.08 C423.73,243.47 432.93,241.15 442.72,239.16 C432.90,241.16 423.67,243.49 415.10,246.13 C414.60,246.28 414.09,246.44 413.58,246.59 C414.10,246.43 414.65,246.26 415.23,246.08 ZM 462.66 718.08 C462.38,718.61 462.09,719.17 461.79,719.77 C461.48,720.40 461.20,720.97 460.95,721.50 C461.29,720.78 461.65,720.02 462.03,719.26 C462.23,718.86 462.44,718.47 462.66,718.08 ZM 482.50 809.74 C481.80,809.60 481.06,809.40 480.30,809.15 C481.03,809.38 481.76,809.57 482.50,809.74 Z" fill="rgb(0,79,190)"/>
<path d="M 158.72 810.39 C158.39,810.05 170.02,785.98 184.56,756.89 L 211.02 704.00 L 225.26 704.00 L 239.50 704.00 L 266.19 757.05 C284.01,792.48 292.47,810.27 291.63,810.59 C290.95,810.85 285.01,810.94 278.44,810.78 L 266.50 810.50 L 246.50 770.30 C235.50,748.19 226.03,730.08 225.46,730.05 C224.58,730.01 187.18,804.35 185.62,809.25 C185.13,810.80 183.57,811.00 172.20,811.00 C165.12,811.00 159.06,810.73 158.72,810.39 ZM 320.70 810.37 C320.31,809.98 320.00,785.89 320.00,756.83 L 320.00 704.00 L 362.32 704.00 C409.00,704.00 411.23,704.24 418.28,710.07 C420.37,711.79 423.27,715.52 424.73,718.35 C427.14,723.02 427.43,724.78 427.80,737.12 C428.34,754.73 426.89,760.42 420.15,767.09 C416.09,771.11 411.89,773.35 404.16,775.61 C403.27,775.87 404.45,778.06 407.73,782.25 C422.35,800.90 428.86,809.81 428.30,810.37 C427.41,811.25 401.74,811.13 400.42,810.23 C399.36,809.51 393.79,802.11 370.54,770.50 L 358.77 754.50 L 378.64 753.99 C389.56,753.72 399.30,753.10 400.29,752.62 C403.32,751.15 405.00,746.49 405.00,739.50 C405.00,732.59 403.28,727.70 400.46,726.62 C399.56,726.28 386.28,726.00 370.93,726.00 L 343.02 726.00 L 342.76 768.25 L 342.50 810.50 L 331.95 810.78 C326.15,810.94 321.08,810.75 320.70,810.37 ZM 483.92 810.03 C474.61,808.37 465.78,802.20 461.71,794.50 C459.85,790.97 459.54,788.26 459.05,771.50 C458.75,761.05 458.52,746.60 458.54,739.40 C458.58,726.70 458.68,726.09 461.79,719.77 C464.33,714.62 466.12,712.48 470.25,709.65 C479.40,703.39 483.45,702.94 528.71,703.24 L 568.50 703.50 L 568.50 714.50 L 568.50 725.50 L 527.78 726.00 C487.05,726.50 487.05,726.50 484.78,728.78 C482.55,731.00 482.49,731.60 482.20,755.25 C482.03,768.56 482.16,780.49 482.47,781.76 C482.79,783.02 484.50,784.95 486.28,786.03 C489.27,787.85 491.42,787.99 515.83,788.00 L 542.15 788.00 L 545.08 785.08 C547.21,782.94 548.00,781.19 548.00,778.60 L 548.00 775.05 L 532.75 774.78 L 517.50 774.50 L 517.22 763.75 L 516.93 753.00 L 544.04 753.00 L 571.16 753.00 L 570.83 771.75 L 570.50 790.50 L 567.42 796.00 C564.13,801.86 557.79,807.00 551.18,809.14 C546.82,810.55 491.03,811.29 483.92,810.03 ZM 628.93 809.99 C618.80,808.28 610.00,801.62 605.80,792.50 C603.56,787.63 603.50,786.72 603.50,757.00 C603.50,727.28 603.56,726.37 605.80,721.50 C608.71,715.17 613.13,710.55 619.50,707.16 L 624.50 704.50 L 663.34 704.21 C707.04,703.87 709.30,704.14 716.82,710.58 C719.16,712.58 722.30,716.54 723.79,719.36 L 726.50 724.50 L 726.81 754.30 C727.06,778.76 726.84,785.05 725.58,789.37 C722.51,799.93 714.80,806.90 703.15,809.64 C696.87,811.12 637.25,811.40 628.93,809.99 ZM 700.23 785.08 L 703.50 782.17 L 703.82 759.87 C704.18,734.81 703.86,731.77 700.48,728.39 L 698.09 726.00 L 665.47 726.00 L 632.85 726.00 L 629.92 728.92 L 627.00 731.85 L 627.00 756.49 C627.00,771.41 627.40,781.89 628.03,783.05 C630.48,787.64 632.62,787.92 665.73,787.96 L 696.97 788.00 L 700.23 785.08 ZM 761.73 810.39 C761.33,809.99 761.00,804.79 761.00,798.83 L 761.00 788.00 L 799.58 788.00 L 838.15 788.00 L 841.20 784.95 C843.93,782.22 844.20,781.43 843.73,777.34 C843.42,774.55 842.39,771.95 841.08,770.64 C839.02,768.57 837.92,768.48 809.22,768.00 C780.17,767.51 779.39,767.44 774.55,765.05 C762.47,759.06 758.57,751.08 759.19,733.67 C759.74,718.35 762.86,712.70 774.00,706.86 C778.49,704.50 778.56,704.50 820.75,704.21 L 863.00 703.92 L 863.00 714.93 L 863.00 725.93 L 824.41 726.22 L 785.82 726.50 L 783.91 728.86 C780.64,732.90 781.86,742.70 785.89,744.68 C786.77,745.12 800.78,745.71 817.00,745.99 L 846.50 746.50 L 852.50 749.50 C856.96,751.73 859.33,753.74 861.72,757.32 C865.91,763.59 866.99,767.73 866.99,777.57 C867.01,793.12 862.48,801.67 851.33,807.16 L 844.55 810.50 L 803.50 810.81 C780.92,810.98 762.13,810.79 761.73,810.39 ZM 482.00 647.56 C465.21,646.20 459.85,645.50 454.50,643.93 C452.85,643.45 446.10,641.87 439.50,640.42 C379.66,627.26 320.01,596.55 256.50,546.18 C218.11,515.73 168.10,471.53 147.88,450.15 L 138.98 440.75 L 146.16 433.13 C155.67,423.03 183.29,396.59 199.50,382.07 C255.74,331.70 304.62,295.74 346.50,273.92 C358.83,267.50 382.82,256.84 391.50,253.93 C393.70,253.19 396.17,252.04 397.00,251.38 C397.83,250.72 400.08,249.93 402.00,249.63 C403.92,249.33 409.82,247.75 415.10,246.13 C433.86,240.34 455.81,236.06 480.14,233.42 C498.72,231.40 538.80,231.93 557.00,234.42 C617.41,242.71 673.52,265.50 729.00,304.29 C753.49,321.41 793.18,352.98 818.50,375.47 C852.62,405.78 885.00,437.53 885.00,440.68 C885.00,442.61 855.23,472.29 837.00,488.54 C779.87,539.46 734.85,573.91 694.71,597.43 C680.77,605.60 655.27,617.72 635.66,625.50 C589.44,643.85 534.24,651.77 482.00,647.56 ZM 534.51 578.00 C563.51,573.04 587.97,560.60 609.52,539.84 C629.34,520.75 642.85,497.42 649.68,470.50 C653.08,457.07 654.05,429.35 651.61,415.28 C637.73,335.35 563.14,283.39 484.81,299.07 C409.32,314.19 359.58,388.77 374.03,465.17 C375.97,475.41 380.20,487.59 385.98,499.54 C412.89,555.21 475.21,588.14 534.51,578.00 ZM 680.00 533.23 C707.68,515.19 740.73,488.47 789.79,444.47 L 794.29 440.43 L 783.89 430.84 C755.42,404.55 722.15,377.11 696.00,358.34 C685.75,350.99 665.89,338.00 664.89,338.00 C664.49,338.00 666.41,341.89 669.14,346.65 C679.06,363.88 686.79,385.08 690.62,405.50 C693.29,419.74 693.29,455.05 690.62,470.00 C686.83,491.25 676.87,517.06 665.36,535.50 C662.61,539.90 659.97,544.15 659.50,544.95 C658.41,546.77 665.07,542.96 680.00,533.23 ZM 365.00 544.53 C365.00,544.27 363.03,541.01 360.62,537.28 C335.19,497.87 325.64,447.06 335.10,401.50 C339.11,382.19 347.20,360.74 356.37,345.08 C358.33,341.74 359.52,339.00 359.01,339.00 C356.12,339.00 317.94,366.34 294.00,385.55 C275.34,400.52 231.00,439.17 231.00,440.45 C231.00,441.01 271.00,476.04 285.50,488.17 C310.19,508.85 326.63,520.83 361.50,543.59 C363.59,544.95 365.00,545.33 365.00,544.53 ZM 498.50 528.82 C485.93,525.55 479.76,523.40 472.55,519.78 C461.88,514.42 456.81,510.85 449.44,503.48 C434.93,488.96 426.27,470.85 424.03,450.32 C421.13,423.78 429.61,397.94 447.36,379.26 C463.99,361.75 483.79,352.63 508.00,351.34 C517.59,350.83 532.36,352.03 533.78,353.44 C534.09,353.76 533.20,355.25 531.78,356.76 C530.37,358.27 527.93,361.98 526.36,365.00 C523.72,370.08 523.50,371.35 523.50,381.50 C523.50,391.63 523.72,392.92 526.31,397.84 C530.41,405.61 536.05,411.22 543.68,415.09 C550.06,418.33 550.92,418.50 560.95,418.50 C570.63,418.50 571.95,418.26 576.95,415.63 C579.95,414.05 584.76,410.31 587.64,407.31 L 592.88 401.86 L 594.33 404.68 C599.55,414.82 602.58,434.45 601.11,448.54 C599.75,461.53 597.57,469.16 591.97,480.50 C580.73,503.28 560.17,519.93 534.50,527.06 C525.39,529.59 505.24,530.58 498.50,528.82 Z" fill="rgb(251,253,253)"/>
</g>
</svg>